<svg width="100" height="18" viewBox="0 0 100 18" fill="none" xmlns="http://www.w3.org/2000/svg">
<rect width="100" height="18" fill="white"/>
<path d="M7.26397 15.6438C5.53302 15.6438 4.22296 15.1452 3.33378 14.1479C2.44459 13.1507 2 11.8626 2 10.2836C2 8.94201 2.29639 7.69543 2.88918 6.54384C3.233 5.86712 3.66574 5.27352 4.18739 4.76301C4.70905 4.25251 5.41446 3.83105 6.30365 3.49863C7.19283 3.16621 8.20057 3 9.32687 3C9.70626 3 10.0441 3.03562 10.3405 3.10685C10.6369 3.17808 10.7851 3.22557 10.7851 3.24932C10.7851 3.81918 10.7436 4.47215 10.6606 5.20822C10.5895 5.93242 10.548 6.30046 10.5362 6.31233C10.4769 6.37169 10.2279 6.46667 9.78925 6.59726C9.36244 6.72785 9.04233 6.79315 8.82893 6.79315V6.6863C8.82893 6.15205 8.75187 5.77808 8.59774 5.56438C8.44362 5.35068 8.17686 5.24384 7.79748 5.24384C6.95572 5.24384 6.17323 5.68904 5.45003 6.57945C4.72683 7.45799 4.36523 8.66895 4.36523 10.2123C4.36523 11.0315 4.56678 11.7676 4.96987 12.4205C5.18328 12.7648 5.49153 13.0438 5.89462 13.2575C6.30958 13.4712 6.79566 13.5781 7.35288 13.5781C8.46733 13.5781 9.55213 13.0616 10.6073 12.0288C10.6547 12.0288 10.7496 12.1059 10.8918 12.2603C11.046 12.4027 11.1942 12.5986 11.3364 12.8479C11.6328 13.3228 11.781 13.6137 11.781 13.7205C11.781 13.8274 11.5973 14.0292 11.2297 14.326C10.8622 14.611 10.305 14.9018 9.55806 15.1986C8.81114 15.4954 8.04645 15.6438 7.26397 15.6438Z" fill="black"/>
<path d="M15.562 9.05479C16.961 8.9242 17.9865 8.59772 18.6386 8.07534C19.3025 7.5411 19.6345 7.01872 19.6345 6.50822C19.6345 5.98584 19.3796 5.60594 18.8698 5.36849C18.36 5.11918 17.7138 4.99452 16.9313 4.99452C16.5164 4.99452 16.0955 5.03014 15.6687 5.10137C15.5976 5.61187 15.562 6.92968 15.562 9.05479ZM15.7576 15.1986C15.6272 15.3292 15.3664 15.4301 14.9751 15.5014C14.5839 15.5845 14.2579 15.626 13.997 15.626C13.7362 15.626 13.5109 15.5904 13.3213 15.5192L13.428 5.24384C13.2738 5.05388 13.1197 4.73927 12.9656 4.3C12.8233 3.86073 12.7522 3.59361 12.7522 3.49863C12.7522 3.39178 12.764 3.32648 12.7877 3.30274C12.8115 3.26712 13.1849 3.23151 13.9081 3.19589C14.6432 3.1484 15.3842 3.12466 16.1311 3.12466C16.878 3.12466 17.5419 3.16621 18.1228 3.24932C18.7038 3.33242 19.3084 3.48082 19.9368 3.69452C20.5651 3.89635 21.0631 4.22283 21.4306 4.67397C21.7981 5.12511 21.9819 5.70685 21.9819 6.41918C21.9819 7.11963 21.7329 7.7726 21.235 8.37808C20.737 8.98356 20.0613 9.49406 19.2076 9.90959C19.2076 10.0995 19.5811 10.9543 20.328 12.474C21.0749 13.9817 21.6677 14.9553 22.1064 15.3945C22.1182 15.4064 22.1242 15.4242 22.1242 15.4479C22.1242 15.4836 22.0293 15.5429 21.8396 15.626C21.318 15.8753 20.7548 16 20.1502 16L19.7056 15.9644C19.4448 15.7032 18.9883 14.8365 18.3362 13.3644C17.696 11.8922 17.3404 10.99 17.2692 10.6575C17.127 10.7406 16.5638 10.8653 15.5798 11.0315C15.6035 13.4178 15.6628 14.8069 15.7576 15.1986Z" fill="black"/>
<path d="M27.3189 15.626C25.5524 15.626 24.2424 15.1155 23.3888 14.0945C22.547 13.0735 22.1261 11.7913 22.1261 10.2479C22.1261 9.5 22.215 8.79954 22.3929 8.14658C22.5707 7.49361 22.7367 7.03059 22.8908 6.75753C23.0449 6.48447 23.1694 6.3242 23.2643 6.27671C23.3591 6.21735 23.7326 6.18767 24.3846 6.18767H24.7225C24.7225 5.59406 24.8352 5.07763 25.0604 4.63836C25.2975 4.19909 25.5999 3.8726 25.9674 3.6589C26.655 3.26712 27.3071 3.07123 27.9236 3.07123C31.2195 3.07123 32.8674 5.14886 32.8674 9.30411C32.8674 10.5982 32.6481 11.7498 32.2094 12.7589C31.9605 13.3288 31.6344 13.8215 31.2313 14.237C30.8283 14.6406 30.2888 14.9731 29.613 15.2342C28.9491 15.4954 28.1844 15.626 27.3189 15.626ZM30.5734 9.16164C30.5734 6.37169 29.7434 4.97671 28.0836 4.97671C27.6094 4.97671 27.2419 5.11324 26.9811 5.3863C26.7321 5.65936 26.6076 6.00959 26.6076 6.43699C26.6076 6.85251 26.738 7.34521 26.9988 7.91507C27.2715 8.48493 27.5442 8.93607 27.8169 9.26849L28.2081 9.76712C28.2081 9.90959 27.9888 10.0461 27.5501 10.1767C27.1115 10.2954 26.7617 10.3548 26.5009 10.3548C26.4416 10.3548 26.3171 10.242 26.1274 10.0164C25.9496 9.79087 25.7362 9.44658 25.4872 8.98356C25.2501 8.50868 25.0782 8.01005 24.9715 7.48767C24.7937 7.66575 24.6514 8.02785 24.5447 8.57397C24.438 9.12009 24.3846 9.6484 24.3846 10.1589C24.3846 11.1562 24.6632 12.011 25.2205 12.7233C25.7777 13.4237 26.4831 13.774 27.3367 13.774C29.4945 13.774 30.5734 12.2365 30.5734 9.16164Z" fill="black"/>
<path d="M34.4241 15.8219C34.1632 15.8219 33.9498 15.7863 33.7839 15.7151C33.7839 13.7205 33.9558 10.8772 34.2996 7.18493L34.4596 5.35068C34.2937 5.14886 34.1336 4.84018 33.9795 4.42466C33.8372 4.00913 33.7661 3.71827 33.7661 3.55206L33.7839 3.49863C33.8194 3.45114 34.1158 3.40959 34.673 3.37397C35.2303 3.33836 35.8408 3.32055 36.5048 3.32055C37.1805 3.32055 37.5481 3.35023 37.6073 3.40959C37.6666 3.46895 37.9512 4.2169 38.461 5.65342C38.9708 7.07808 39.3501 8.18219 39.5991 8.96575C39.6228 9.02511 39.6525 9.05479 39.688 9.05479C39.7236 9.05479 39.7829 8.93014 39.8659 8.68082C39.9489 8.41963 40.2927 7.52922 40.8973 6.00959C41.502 4.47808 41.9051 3.61142 42.1066 3.40959C42.2133 3.30274 42.7883 3.24932 43.8316 3.24932C44.8749 3.24932 45.3966 3.279 45.3966 3.33836C45.3966 3.54018 45.3136 3.89041 45.1476 4.38904C44.9935 4.88767 44.8631 5.2379 44.7564 5.43973C45.1713 9.2032 45.3788 12.5333 45.3788 15.4301C45.3788 15.5489 45.1358 15.6557 44.6497 15.7507C44.1755 15.8575 43.7842 15.911 43.476 15.911C43.1677 15.911 43.0136 15.8872 43.0136 15.8397C43.0492 15.353 43.0669 14.5694 43.0669 13.489C43.0669 12.3968 43.0373 11.1027 42.978 9.60685C42.9187 7.74292 42.8476 6.81096 42.7646 6.81096L42.6579 6.91781C42.4208 7.35708 42.1125 8.09909 41.7332 9.14384C41.3656 10.1886 41.0574 11.1265 40.8084 11.9575L40.435 13.1863C40.3757 13.3169 40.1978 13.3822 39.9014 13.3822C39.6169 13.3822 39.3798 13.3644 39.1901 13.3288C39.0123 13.2932 38.9174 13.2575 38.9056 13.2219C38.87 13.0913 38.5025 12.0525 37.803 10.1055C37.1035 8.14658 36.7004 7.10183 36.5937 6.97123C36.5581 6.9 36.5285 6.86438 36.5048 6.86438C36.4811 6.86438 36.4633 6.90594 36.4514 6.98904C36.238 8.06941 36.1313 9.66027 36.1313 11.7616C36.1313 13.8511 36.1609 15.0621 36.2202 15.3945C35.9238 15.6795 35.3251 15.8219 34.4241 15.8219Z" fill="black"/>
<path d="M47.0324 15.8219C46.7716 15.8219 46.5582 15.7863 46.3922 15.7151C46.3922 13.7205 46.5641 10.8772 46.9079 7.18493L47.068 5.35068C46.902 5.14886 46.7419 4.84018 46.5878 4.42466C46.4456 4.00913 46.3744 3.71827 46.3744 3.55206L46.3922 3.49863C46.4278 3.45114 46.7242 3.40959 47.2814 3.37397C47.8386 3.33836 48.4492 3.32055 49.1131 3.32055C49.7889 3.32055 50.1564 3.35023 50.2157 3.40959C50.275 3.46895 50.5595 4.2169 51.0693 5.65342C51.5791 7.07808 51.9585 8.18219 52.2075 8.96575C52.2312 9.02511 52.2608 9.05479 52.2964 9.05479C52.3319 9.05479 52.3912 8.93014 52.4742 8.68082C52.5572 8.41963 52.901 7.52922 53.5057 6.00959C54.1103 4.47808 54.5134 3.61142 54.715 3.40959C54.8217 3.30274 55.3967 3.24932 56.44 3.24932C57.4833 3.24932 58.0049 3.279 58.0049 3.33836C58.0049 3.54018 57.9219 3.89041 57.756 4.38904C57.6018 4.88767 57.4714 5.2379 57.3647 5.43973C57.7797 9.2032 57.9872 12.5333 57.9872 15.4301C57.9872 15.5489 57.7441 15.6557 57.258 15.7507C56.7838 15.8575 56.3926 15.911 56.0843 15.911C55.7761 15.911 55.6219 15.8872 55.6219 15.8397C55.6575 15.353 55.6753 14.5694 55.6753 13.489C55.6753 12.3968 55.6456 11.1027 55.5864 9.60685C55.5271 7.74292 55.4559 6.81096 55.373 6.81096L55.2663 6.91781C55.0291 7.35708 54.7209 8.09909 54.3415 9.14384C53.974 10.1886 53.6657 11.1265 53.4168 11.9575L53.0433 13.1863C52.984 13.3169 52.8062 13.3822 52.5098 13.3822C52.2252 13.3822 51.9881 13.3644 51.7984 13.3288C51.6206 13.2932 51.5258 13.2575 51.5139 13.2219C51.4783 13.0913 51.1108 12.0525 50.4113 10.1055C49.7118 8.14658 49.3087 7.10183 49.202 6.97123C49.1665 6.9 49.1368 6.86438 49.1131 6.86438C49.0894 6.86438 49.0716 6.90594 49.0598 6.98904C48.8463 8.06941 48.7396 9.66027 48.7396 11.7616C48.7396 13.8511 48.7693 15.0621 48.8286 15.3945C48.5322 15.6795 47.9335 15.8219 47.0324 15.8219Z" fill="black"/>
<path d="M60.2726 8.12877L60.2904 6.20548C60.2904 5.69498 60.2786 5.41598 60.2549 5.36849C60.1244 5.2379 59.9525 4.92329 59.7391 4.42466C59.5376 3.92603 59.4368 3.60548 59.4368 3.46301C59.5672 3.33242 61.6479 3.26712 65.6789 3.26712C66.6748 3.26712 67.1727 3.29087 67.1727 3.33836C67.1727 3.58767 67.1134 3.86073 66.9949 4.15753C66.8882 4.45434 66.7696 4.69178 66.6392 4.86986C66.5206 5.04795 66.4317 5.13105 66.3724 5.11918C66.325 5.09543 66.082 5.08356 65.6433 5.08356C65.2165 5.08356 64.6178 5.11324 63.8472 5.1726C63.0765 5.22009 62.6556 5.27945 62.5845 5.35068C62.5134 5.42192 62.4778 6.07489 62.4778 7.30959L62.4956 8.05753C62.9698 8.04566 63.6693 8.03973 64.5941 8.03973C65.5188 8.03973 65.9812 8.05753 65.9812 8.09315C65.9812 8.52055 65.8389 9.00731 65.5544 9.55342C65.4477 9.74338 65.3825 9.83242 65.3588 9.82055C65.0505 9.82055 64.5229 9.85023 63.776 9.90959C63.0291 9.95708 62.5964 10.0164 62.4778 10.0877C62.466 10.0995 62.46 10.5982 62.46 11.5836C62.46 12.5689 62.4897 13.0913 62.5489 13.1507C62.7386 13.3406 63.7582 13.4356 65.6077 13.4356C66.3547 13.4356 66.8585 13.4178 67.1193 13.3822C67.3802 13.3347 67.5106 13.3169 67.5106 13.3288C67.5106 13.6137 67.4157 13.9521 67.2261 14.3438C67.0364 14.7356 66.8348 15.0324 66.6214 15.2342C66.5028 15.353 65.4358 15.4123 63.4203 15.4123C61.4167 15.4123 60.3793 15.3648 60.3082 15.2699C60.2371 15.2105 60.2015 14.6406 60.2015 13.5603C60.2015 12.468 60.2134 11.3164 60.2371 10.1055C60.0237 9.91553 59.8162 9.61872 59.6146 9.21507C59.425 8.81142 59.3301 8.46712 59.3301 8.18219C59.3301 8.17032 59.6443 8.15251 60.2726 8.12877Z" fill="black"/>
<path d="M71.5701 9.05479C72.9691 8.9242 73.9946 8.59772 74.6467 8.07534C75.3106 7.5411 75.6426 7.01872 75.6426 6.50822C75.6426 5.98584 75.3877 5.60594 74.8779 5.36849C74.3681 5.11918 73.722 4.99452 72.9395 4.99452C72.5245 4.99452 72.1036 5.03014 71.6768 5.10137C71.6057 5.61187 71.5701 6.92968 71.5701 9.05479ZM71.7657 15.1986C71.6353 15.3292 71.3745 15.4301 70.9833 15.5014C70.592 15.5845 70.266 15.626 70.0052 15.626C69.7443 15.626 69.5191 15.5904 69.3294 15.5192L69.4361 5.24384C69.282 5.05388 69.1278 4.73927 68.9737 4.3C68.8314 3.86073 68.7603 3.59361 68.7603 3.49863C68.7603 3.39178 68.7722 3.32648 68.7959 3.30274C68.8196 3.26712 69.193 3.23151 69.9162 3.19589C70.6513 3.1484 71.3923 3.12466 72.1392 3.12466C72.8861 3.12466 73.55 3.16621 74.131 3.24932C74.7119 3.33242 75.3166 3.48082 75.9449 3.69452C76.5733 3.89635 77.0712 4.22283 77.4387 4.67397C77.8063 5.12511 77.99 5.70685 77.99 6.41918C77.99 7.11963 77.7411 7.7726 77.2431 8.37808C76.7452 8.98356 76.0694 9.49406 75.2158 9.90959C75.2158 10.0995 75.5892 10.9543 76.3362 12.474C77.0831 13.9817 77.6759 14.9553 78.1145 15.3945C78.1264 15.4064 78.1323 15.4242 78.1323 15.4479C78.1323 15.4836 78.0375 15.5429 77.8478 15.626C77.3261 15.8753 76.763 16 76.1583 16L75.7137 15.9644C75.4529 15.7032 74.9965 14.8365 74.3444 13.3644C73.7042 11.8922 73.3485 10.99 73.2774 10.6575C73.1351 10.7406 72.5719 10.8653 71.5879 11.0315C71.6116 13.4178 71.6709 14.8069 71.7657 15.1986Z" fill="black"/>
<path d="M80.1403 8.12877L80.1581 6.20548C80.1581 5.69498 80.1463 5.41598 80.1225 5.36849C79.9921 5.2379 79.8202 4.92329 79.6068 4.42466C79.4053 3.92603 79.3045 3.60548 79.3045 3.46301C79.4349 3.33242 81.5156 3.26712 85.5466 3.26712C86.5425 3.26712 87.0404 3.29087 87.0404 3.33836C87.0404 3.58767 86.9811 3.86073 86.8626 4.15753C86.7559 4.45434 86.6373 4.69178 86.5069 4.86986C86.3883 5.04795 86.2994 5.13105 86.2401 5.11918C86.1927 5.09543 85.9497 5.08356 85.511 5.08356C85.0842 5.08356 84.4855 5.11324 83.7148 5.1726C82.9442 5.22009 82.5233 5.27945 82.4522 5.35068C82.3811 5.42192 82.3455 6.07489 82.3455 7.30959L82.3633 8.05753C82.8375 8.04566 83.537 8.03973 84.4618 8.03973C85.3865 8.03973 85.8489 8.05753 85.8489 8.09315C85.8489 8.52055 85.7066 9.00731 85.4221 9.55342C85.3154 9.74338 85.2502 9.83242 85.2265 9.82055C84.9182 9.82055 84.3906 9.85023 83.6437 9.90959C82.8968 9.95708 82.4641 10.0164 82.3455 10.0877C82.3336 10.0995 82.3277 10.5982 82.3277 11.5836C82.3277 12.5689 82.3574 13.0913 82.4166 13.1507C82.6063 13.3406 83.6259 13.4356 85.4754 13.4356C86.2223 13.4356 86.7262 13.4178 86.987 13.3822C87.2479 13.3347 87.3783 13.3169 87.3783 13.3288C87.3783 13.6137 87.2834 13.9521 87.0937 14.3438C86.9041 14.7356 86.7025 15.0324 86.4891 15.2342C86.3705 15.353 85.3035 15.4123 83.288 15.4123C81.2844 15.4123 80.247 15.3648 80.1759 15.2699C80.1048 15.2105 80.0692 14.6406 80.0692 13.5603C80.0692 12.468 80.081 11.3164 80.1048 10.1055C79.8914 9.91553 79.6839 9.61872 79.4823 9.21507C79.2926 8.81142 79.1978 8.46712 79.1978 8.18219C79.1978 8.17032 79.512 8.15251 80.1403 8.12877Z" fill="black"/>
<path d="M91.4378 9.05479C92.8368 8.9242 93.8623 8.59772 94.5144 8.07534C95.1783 7.5411 95.5103 7.01872 95.5103 6.50822C95.5103 5.98584 95.2554 5.60594 94.7456 5.36849C94.2358 5.11918 93.5896 4.99452 92.8072 4.99452C92.3922 4.99452 91.9713 5.03014 91.5445 5.10137C91.4734 5.61187 91.4378 6.92968 91.4378 9.05479ZM91.6334 15.1986C91.503 15.3292 91.2422 15.4301 90.851 15.5014C90.4597 15.5845 90.1337 15.626 89.8729 15.626C89.612 15.626 89.3868 15.5904 89.1971 15.5192L89.3038 5.24384C89.1497 5.05388 88.9955 4.73927 88.8414 4.3C88.6991 3.86073 88.628 3.59361 88.628 3.49863C88.628 3.39178 88.6399 3.32648 88.6636 3.30274C88.6873 3.26712 89.0607 3.23151 89.7839 3.19589C90.519 3.1484 91.26 3.12466 92.0069 3.12466C92.7538 3.12466 93.4177 3.16621 93.9987 3.24932C94.5796 3.33242 95.1842 3.48082 95.8126 3.69452C96.441 3.89635 96.9389 4.22283 97.3064 4.67397C97.674 5.12511 97.8577 5.70685 97.8577 6.41918C97.8577 7.11963 97.6088 7.7726 97.1108 8.37808C96.6129 8.98356 95.9371 9.49406 95.0835 9.90959C95.0835 10.0995 95.4569 10.9543 96.2038 12.474C96.9508 13.9817 97.5435 14.9553 97.9822 15.3945C97.9941 15.4064 98 15.4242 98 15.4479C98 15.4836 97.9051 15.5429 97.7155 15.626C97.1938 15.8753 96.6307 16 96.026 16L95.5814 15.9644C95.3206 15.7032 94.8641 14.8365 94.2121 13.3644C93.5719 11.8922 93.2162 10.99 93.1451 10.6575C93.0028 10.7406 92.4396 10.8653 91.4556 11.0315C91.4793 13.4178 91.5386 14.8069 91.6334 15.1986Z" fill="black"/>
</svg>
