<svg width="100" height="18" viewBox="0 0 100 18" fill="none" xmlns="http://www.w3.org/2000/svg">
<rect width="100" height="18" fill="white"/>
<path d="M7.4123 9.74074L6.17448 9.80423C6.12037 9.80423 6.09331 9.71252 6.09331 9.5291C6.09331 9.34568 6.15419 9.03527 6.27594 8.59788C6.3977 8.16049 6.55327 7.84303 6.74266 7.6455C6.93205 7.44797 8.52836 7.34921 11.5316 7.34921C12.3027 7.34921 12.6882 7.38448 12.6882 7.45503C12.6882 7.77954 12.6003 8.22399 12.4244 8.78836C12.2621 9.33862 12.1201 9.70547 11.9983 9.88889C11.9848 13.6843 11.9374 15.6526 11.8563 15.7937C11.7886 15.9347 11.5451 16.0899 11.1258 16.2593C10.7064 16.4427 10.3479 16.5344 10.0503 16.5344C9.76618 16.5344 9.62414 16.5132 9.62414 16.4709C9.62414 15.709 9.59032 15.2504 9.52268 15.0952L9.48209 15.0529L9.42122 15.0952C8.62306 15.9277 7.5814 16.3439 6.29623 16.3439C4.53759 16.3439 3.21184 15.7513 2.31899 14.5661C1.43966 13.381 1 11.8501 1 9.97354C1 8.3933 1.27733 6.9612 1.83198 5.67725C2.18371 4.87302 2.63013 4.1746 3.17125 3.58201C3.7259 2.98942 4.48347 2.49559 5.44397 2.10053C6.41799 1.70547 7.54082 1.50794 8.81245 1.50794C9.09654 1.50794 9.48886 1.54321 9.98939 1.61376C10.4899 1.6843 10.7537 1.74074 10.7808 1.78307C10.8214 1.8254 10.8417 1.9806 10.8417 2.24868C10.8417 2.51675 10.8078 2.8836 10.7402 3.34921C10.6726 3.81482 10.5982 4.08995 10.517 4.1746C10.0976 3.94885 9.3874 3.83598 8.38632 3.83598C6.95235 3.83598 5.80922 4.33686 4.95696 5.33862C4.10469 6.34039 3.67856 7.80776 3.67856 9.74074C3.67856 10.9824 3.92206 11.9771 4.40907 12.7249C4.89608 13.4727 5.57925 13.8466 6.45857 13.8466C7.33789 13.8466 8.04812 13.6208 8.58924 13.1693C9.14389 12.7178 9.42122 12.3369 9.42122 12.0265V11.3492C9.42122 10.4885 9.38063 10.0159 9.29946 9.93122C9.20477 9.80423 8.57571 9.74074 7.4123 9.74074Z" fill="black"/>
<path d="M19.6253 16.3439C17.6096 16.3439 16.1147 15.7372 15.1407 14.5238C14.1802 13.3104 13.7 11.7866 13.7 9.95238C13.7 9.06349 13.8015 8.23104 14.0044 7.45503C14.2073 6.67901 14.3967 6.12875 14.5726 5.80423C14.7484 5.47972 14.8905 5.28924 14.9987 5.2328C15.1069 5.16226 15.533 5.12698 16.2771 5.12698H16.6626C16.6626 4.42152 16.7912 3.80776 17.0482 3.28571C17.3187 2.76367 17.6637 2.37566 18.0831 2.12169C18.8677 1.65609 19.6118 1.42328 20.3152 1.42328C24.076 1.42328 25.9564 3.89242 25.9564 8.83069C25.9564 10.3686 25.7061 11.7372 25.2056 12.9365C24.9215 13.6138 24.5495 14.1993 24.0895 14.6931C23.6296 15.1728 23.0141 15.5679 22.243 15.8783C21.4854 16.1887 20.6128 16.3439 19.6253 16.3439ZM23.3387 8.66138C23.3387 5.34568 22.3918 3.68783 20.4978 3.68783C19.9567 3.68783 19.5373 3.85009 19.2397 4.1746C18.9556 4.49912 18.8136 4.91534 18.8136 5.42328C18.8136 5.91711 18.9624 6.50265 19.26 7.17989C19.5712 7.85714 19.8823 8.3933 20.1935 8.78836L20.6399 9.38095C20.6399 9.55026 20.3896 9.71252 19.8891 9.86772C19.3885 10.0088 18.9895 10.0794 18.6918 10.0794C18.6242 10.0794 18.4822 9.94533 18.2657 9.67725C18.0628 9.40917 17.8193 9 17.5352 8.44974C17.2646 7.88536 17.0685 7.29277 16.9467 6.67196C16.7438 6.8836 16.5815 7.31393 16.4597 7.96296C16.338 8.61199 16.2771 9.23986 16.2771 9.84656C16.2771 11.0317 16.595 12.0476 17.2308 12.8942C17.8666 13.7266 18.6716 14.1429 19.6456 14.1429C22.1077 14.1429 23.3387 12.3157 23.3387 8.66138Z" fill="black"/>
<path d="M30.3408 2.50265L30.1784 8.32275C30.1784 11.9912 30.9225 13.8254 32.4106 13.8254C32.857 13.8254 33.2358 13.7337 33.5469 13.5503C33.8581 13.3527 34.1422 13 34.3992 12.4921C34.9268 11.5044 35.1906 9.59965 35.1906 6.77778C35.1906 3.9418 35.1162 2.05115 34.9674 1.10582C35.1162 1.03527 35.3056 1 35.5355 1C36.5501 1 37.2266 1.18342 37.5648 1.55026C37.6865 2.18519 37.7474 4.19577 37.7474 7.58201C37.7474 11.0388 37.1995 13.4092 36.1037 14.6931C35.5626 15.328 34.9741 15.7725 34.3383 16.0265C33.716 16.2804 32.9923 16.4074 32.1671 16.4074C30.5572 16.4074 29.387 15.7725 28.6565 14.5026C27.926 13.2187 27.5608 11.0106 27.5608 7.87831C27.5608 6.69312 27.5743 5.76896 27.6013 5.10582C27.6419 4.44268 27.6555 4.10406 27.6419 4.08995C27.5608 3.93474 27.4593 3.66667 27.3375 3.28571C27.2293 2.90476 27.1752 2.62963 27.1752 2.46032C27.1752 2.40388 27.3037 2.31922 27.5608 2.20635C28.2236 1.93827 28.8392 1.80423 29.4073 1.80423C29.9755 1.80423 30.2731 1.81834 30.3002 1.84656C30.3272 1.87478 30.3408 2.09347 30.3408 2.50265Z" fill="black"/>
<path d="M42.5733 8.53439C44.1696 8.37919 45.3397 7.99118 46.0838 7.37037C46.8414 6.73545 47.2201 6.11464 47.2201 5.50794C47.2201 4.88713 46.9293 4.43563 46.3476 4.15344C45.7659 3.85714 45.0286 3.70899 44.1357 3.70899C43.6623 3.70899 43.182 3.75132 42.695 3.83598C42.6138 4.44268 42.5733 6.00882 42.5733 8.53439ZM42.7965 15.836C42.6477 15.9912 42.35 16.1111 41.9036 16.1958C41.4572 16.2945 41.0852 16.3439 40.7875 16.3439C40.4899 16.3439 40.2329 16.3016 40.0164 16.2169L40.1382 4.00529C39.9623 3.77954 39.7865 3.40564 39.6106 2.8836C39.4483 2.36155 39.3671 2.04409 39.3671 1.93122C39.3671 1.80423 39.3806 1.72663 39.4077 1.69841C39.4347 1.65608 39.8609 1.61376 40.6861 1.57143C41.5248 1.51499 42.3703 1.48677 43.2226 1.48677C44.0749 1.48677 44.8324 1.53616 45.4953 1.63492C46.1582 1.73369 46.8481 1.91005 47.5651 2.16402C48.2821 2.40388 48.8503 2.79189 49.2696 3.32804C49.689 3.8642 49.8987 4.55556 49.8987 5.40212C49.8987 6.23457 49.6146 7.01058 49.0464 7.73016C48.4782 8.44974 47.7072 9.05644 46.7331 9.55026C46.7331 9.77601 47.1593 10.7919 48.0115 12.5979C48.8638 14.3898 49.5402 15.5467 50.0407 16.0688C50.0543 16.0829 50.061 16.1041 50.061 16.1323C50.061 16.1746 49.9528 16.2452 49.7364 16.3439C49.1411 16.6402 48.4985 16.7884 47.8086 16.7884L47.3013 16.746C47.0037 16.4356 46.4829 15.4056 45.7388 13.6561C45.0083 11.9065 44.6025 10.8342 44.5213 10.4392C44.359 10.5379 43.7164 10.6861 42.5935 10.8836C42.6206 13.7196 42.6882 15.3704 42.7965 15.836Z" fill="black"/>
<path d="M54.6453 2.48148L54.5235 11.2011C54.5235 12.2875 54.5438 13.0917 54.5844 13.6138C54.8009 13.6702 55.1458 13.6984 55.6193 13.6984C56.1063 13.6984 56.5189 13.6561 56.8571 13.5714C57.2089 13.4868 57.4997 13.3386 57.7297 13.127C57.9732 12.9012 58.1694 12.6966 58.3182 12.5132C58.467 12.3157 58.5955 12.0265 58.7037 11.6455C58.8661 11.1376 59.0284 10.4674 59.1907 9.63492C59.1907 9.62081 59.2854 9.61376 59.4748 9.61376C59.6777 9.61376 59.9889 9.71252 60.4083 9.91005C60.8412 10.0935 61.0576 10.2346 61.0576 10.3333C61.0576 11.4198 61.0035 12.6473 60.8953 14.0159C60.787 15.5397 60.6518 16.3016 60.4894 16.3016C60.3406 16.3016 60.043 16.2381 59.5966 16.1111C59.1501 15.9982 58.8119 15.8924 58.582 15.7937C57.3644 16.0053 55.7884 16.1182 53.8539 16.1323L52.8393 16.1534L52.0276 16.0476C51.9735 15.9912 51.9465 15.3704 51.9465 14.1852L52.0276 6.07937C52.0276 4.42857 51.987 3.55379 51.9059 3.45503C51.8382 3.34215 51.7165 3.07407 51.5406 2.65079C51.3647 2.2134 51.2768 1.93122 51.2768 1.80423C51.2768 1.7478 51.4256 1.67019 51.7232 1.57143C52.4673 1.28924 53.1234 1.14815 53.6916 1.14815C54.2598 1.14815 54.5574 1.16931 54.5844 1.21164C54.625 1.25397 54.6453 1.67725 54.6453 2.48148Z" fill="black"/>
<path d="M68.9983 10.9683C68.8089 10.9541 68.2272 10.9471 67.2532 10.9471C66.2792 10.9471 65.711 10.9753 65.5487 11.0317C64.8317 13.4868 64.4258 15.2575 64.3311 16.3439C64.3311 16.358 64.162 16.3651 63.8238 16.3651C63.4992 16.3651 63.1609 16.3439 62.8092 16.3016C62.0652 16.1887 61.6932 16.0899 61.6932 16.0053C61.6932 15.4409 62.1734 13.7972 63.1339 11.0741C62.958 10.9189 62.7551 10.6014 62.5251 10.1217C62.2952 9.62787 62.1802 9.21869 62.1802 8.89418C62.1802 8.88007 62.7416 8.85185 63.8644 8.80952C64.9737 5.4515 65.6028 3.68078 65.7516 3.49735C65.8057 3.45503 66.0492 3.39153 66.4821 3.30688C66.915 3.20811 67.1923 3.15873 67.3141 3.15873L67.2735 2.8836C67.2464 2.68607 67.2126 2.47443 67.172 2.24868C67.145 2.00882 67.1314 1.85362 67.1314 1.78307C67.1314 1.74074 67.2464 1.65609 67.4764 1.5291C68.1393 1.19048 68.8224 1.02117 69.5259 1.02117C69.6612 1.85362 69.837 2.91887 70.0535 4.21693C70.2835 5.50088 70.7231 7.46914 71.3725 10.1217C72.0218 12.7743 72.6441 14.6226 73.2394 15.6667L73.3814 15.9206C73.3814 15.9912 73.2529 16.1111 72.9958 16.2804C72.7388 16.4497 72.4006 16.612 71.9812 16.7672C71.5619 16.9224 71.1763 17 70.8246 17C70.7028 17 70.4052 16.2028 69.9317 14.6085C69.4718 13 69.1606 11.7866 68.9983 10.9683ZM68.5113 8.78836C68.0513 6.75661 67.8011 5.62081 67.7605 5.38095C67.7199 5.14109 67.6861 5.02116 67.659 5.02116C67.632 5.02116 67.5982 5.04938 67.5576 5.10582C67.4358 5.34568 67.2058 5.92416 66.8676 6.84127C66.543 7.75838 66.3333 8.3933 66.2386 8.74603C67.7402 8.74603 68.4978 8.76014 68.5113 8.78836Z" fill="black"/>
<path d="M75.7193 16.3439C75.4487 16.3439 75.2052 16.3016 74.9888 16.2169V15.582C74.9888 13.4233 75.0564 10.291 75.1917 6.18519L75.2728 4.13227C75.097 3.89242 74.9211 3.51852 74.7452 3.01058C74.5829 2.48854 74.5017 2.17108 74.5017 2.0582C74.5017 1.93122 74.5153 1.85362 74.5423 1.8254C74.5694 1.79718 74.9076 1.7619 75.5569 1.71958C76.2198 1.66314 76.8962 1.63492 77.5861 1.63492C78.2896 1.63492 78.6819 1.67019 78.7631 1.74074C81.1575 7.32804 82.3751 10.1781 82.4157 10.291C82.4698 10.4039 82.5103 10.4603 82.5374 10.4603L82.6186 10.3122V9.71958C82.6186 8.52028 82.578 7.02469 82.4968 5.2328C82.4292 3.44092 82.3548 2.32628 82.2736 1.88889C82.463 1.70547 82.808 1.55027 83.3085 1.42328C83.8226 1.28219 84.2825 1.21164 84.6884 1.21164C85.1077 1.21164 85.3174 1.24691 85.3174 1.31746C85.3174 1.59965 85.2701 1.93122 85.1754 2.31217C85.0807 2.69312 85.0333 2.89065 85.0333 2.90476C84.9386 3.53968 84.8913 4.53439 84.8913 5.88889C84.8913 7.22928 84.8913 8.19577 84.8913 8.78836C84.9048 9.38095 84.9116 9.95238 84.9116 10.5026C84.9251 11.0388 84.9386 11.575 84.9522 12.1111C84.9657 12.6332 84.9725 13.1129 84.9725 13.5503C84.9995 14.4815 85.013 15.1305 85.013 15.4974L85.0333 15.7937C85.0333 15.836 84.9454 15.8924 84.7695 15.963C84.2419 16.1887 83.5317 16.3016 82.6389 16.3016L81.8881 16.2169C81.3469 14.6226 80.5555 12.612 79.5139 10.1852C78.4722 7.75838 77.8905 6.45326 77.7688 6.26984C77.647 6.07231 77.5726 5.97355 77.5456 5.97355L77.4847 6.12169C77.4306 6.51676 77.4035 7.37037 77.4035 8.68254C77.4035 9.9806 77.4306 11.3986 77.4847 12.9365C77.5523 14.4744 77.6267 15.4409 77.7079 15.836C77.3426 16.1746 76.6798 16.3439 75.7193 16.3439Z" fill="black"/>
<path d="M92.6689 16.3439C90.6532 16.3439 89.1583 15.7372 88.1843 14.5238C87.2238 13.3104 86.7436 11.7866 86.7436 9.95238C86.7436 9.06349 86.845 8.23104 87.048 7.45503C87.2509 6.67901 87.4403 6.12875 87.6161 5.80423C87.792 5.47972 87.934 5.28924 88.0423 5.2328C88.1505 5.16226 88.5766 5.12698 89.3207 5.12698H89.7062C89.7062 4.42152 89.8347 3.80776 90.0918 3.28571C90.3623 2.76367 90.7073 2.37566 91.1267 2.12169C91.9113 1.65609 92.6553 1.42328 93.3588 1.42328C97.1196 1.42328 99 3.89242 99 8.83069C99 10.3686 98.7497 11.7372 98.2492 12.9365C97.9651 13.6138 97.5931 14.1993 97.1331 14.6931C96.6732 15.1728 96.0576 15.5679 95.2865 15.8783C94.529 16.1887 93.6564 16.3439 92.6689 16.3439ZM96.3823 8.66138C96.3823 5.34568 95.4354 3.68783 93.5414 3.68783C93.0003 3.68783 92.5809 3.85009 92.2833 4.1746C91.9992 4.49912 91.8572 4.91534 91.8572 5.42328C91.8572 5.91711 92.006 6.50265 92.3036 7.17989C92.6148 7.85714 92.9259 8.3933 93.237 8.78836L93.6835 9.38095C93.6835 9.55026 93.4332 9.71252 92.9327 9.86772C92.4321 10.0088 92.033 10.0794 91.7354 10.0794C91.6678 10.0794 91.5257 9.94533 91.3093 9.67725C91.1064 9.40917 90.8629 9 90.5788 8.44974C90.3082 7.88536 90.1121 7.29277 89.9903 6.67196C89.7874 6.8836 89.6251 7.31393 89.5033 7.96296C89.3815 8.61199 89.3207 9.23986 89.3207 9.84656C89.3207 11.0317 89.6386 12.0476 90.2744 12.8942C90.9102 13.7266 91.7151 14.1429 92.6892 14.1429C95.1513 14.1429 96.3823 12.3157 96.3823 8.66138Z" fill="black"/>
</svg>
